<?xml version="1.0" standalone="no"?><!DOCTYPE svg PUBLIC "-//W3C//DTD SVG 1.1//EN" "http://www.w3.org/Graphics/SVG/1.1/DTD/svg11.dtd"><svg width="200" height="200" viewBox="0 0 200 200" version="1.1" xmlns="http://www.w3.org/2000/svg" xmlns:xlink="http://www.w3.org/1999/xlink"><defs><style type="text/css"><![CDATA[
@font-face {
  font-family: "ifont";
  src: url("//at.alicdn.com/t/font_1442373896_4754455.eot?#iefix") format("embedded-opentype"), url("//at.alicdn.com/t/font_1442373896_4754455.woff") format("woff"), url("//at.alicdn.com/t/font_1442373896_4754455.ttf") format("truetype"), url("//at.alicdn.com/t/font_1442373896_4754455.svg#ifont") format("svg");
}

]]></style></defs><g class="transform-group"><g transform="scale(0.1953125, 0.1953125)"><path d="M741.293764 396.879306M521.791366 195.515561c-2.556316-2.393508-5.985545-3.872183-9.777039-3.872183s-7.216629 1.477651-9.771922 3.872183L297.980684 387.739153c-1.379469 1.29448-1.908539 3.365647-1.175823 5.230108 0.751135 1.863437 2.534826 2.999304 4.419827 2.999304l132.150688 0 0 195.386625c0 3.650126 1.403006 7.300252 4.181388 10.05601 2.794755 2.79976 6.446051 4.198617 10.096322 4.198617l128.704061 0c3.651295 0 7.30259-1.397833 10.098369-4.198617 2.776335-2.755758 4.179341-6.405884 4.179341-10.05601L590.634858 395.968565l132.151711 0c1.885002 0 3.673809-1.135868 4.418804-2.999304 0.733738-1.86446 0.203646-3.936651-1.1748-5.230108L521.791366 195.515561 521.791366 195.515561zM899.879501 666.702099l-125.807995-87.30831-78.620531 0L827.34378 686.127481l-144.989575-1.904369c-4.199808 0-10.243684 4.054331-12.147106 7.417932l-40.274768 97.411392L394.079949 789.052436l-40.274768-97.411392c-1.886025-3.363601-7.929901-7.417932-12.147106-7.417932L197.522993 684.223112l131.036265-104.829324L249.92133 579.393788 124.131756 666.706192c-19.648225 11.781301-31.447394 38.907047-26.177167 60.341176l23.317941 127.905856c5.292741 21.412639 28.675152 38.91114 51.973649 38.91114l677.514807 0c23.282123 0 46.680908-17.499524 51.973649-38.91114l23.300544-127.905856C931.326895 705.613239 919.546146 678.483399 899.879501 666.702099L899.879501 666.702099zM899.879501 666.702099" fill="#272636"></path></g></g></svg>